<?xml version="1.0" encoding="utf-8"?>
<!-- Generator: Adobe Illustrator 19.2.0, SVG Export Plug-In . SVG Version: 6.00 Build 0)  -->
<svg version="1.1" id="Layer_1" xmlns="http://www.w3.org/2000/svg" xmlns:xlink="http://www.w3.org/1999/xlink" x="0px" y="0px"
	 viewBox="0 0 30 30" style="enable-background:new 0 0 30 30;" xml:space="preserve">
<path d="M15,0c-1.4,0-2.5,1.2-2.5,2.5v10h-10C1.2,12.5,0,13.6,0,15c0,1.4,1.1,2.5,2.5,2.5c0,0,0,0,0.1,0h10v10
	c0,1.4,1.1,2.5,2.5,2.5c1.4,0,2.5-1.1,2.5-2.5c0,0,0,0,0-0.1v-10h10c1.4,0,2.5-1.1,2.5-2.5c0-1.4-1.1-2.5-2.5-2.5c0,0,0,0-0.1,0h-10
	v-10C17.5,1.2,16.4,0,15,0C15,0,15,0,15,0z"/>
</svg>
