<svg xmlns="http://www.w3.org/2000/svg" xmlns:xlink="http://www.w3.org/1999/xlink" viewBox="0 0 16 16" version="1.1">
<g id="surface1">
<path style="fill:#908e81; stroke:none; stroke-miterlimit:5;stroke-width:0.1px; " d="M 7.5 1 C 3.914063 1 1 3.914063 1 7.5 C 1 11.085938 3.914063 14 7.5 14 C 8.71875 14 9.863281 13.664063 10.839844 13.078125 L 10.324219 12.21875 C 9.5 12.714844 8.535156 13 7.5 13 C 4.457031 13 2 10.542969 2 7.5 C 2 4.457031 4.457031 2 7.5 2 C 10.542969 2 13 4.457031 13 7.5 L 13 8.601563 C 13 9.375 12.375 10 11.605469 10 L 11.398438 10 C 10.628906 10 10 9.375 10 8.601563 L 10 6.398438 C 10 5.082031 8.917969 4 7.601563 4 L 7.398438 4 C 6.082031 4 5 5.082031 5 6.398438 L 5 8.601563 C 5 9.917969 6.082031 11 7.398438 11 L 7.601563 11 C 8.375 11 9.0625 10.621094 9.5 10.046875 C 9.941406 10.621094 10.625 11 11.398438 11 L 11.605469 11 C 12.917969 11 14 9.921875 14 8.601563 L 14 7.5 C 14 3.914063 11.085938 1 7.5 1 Z M 7.398438 5 L 7.601563 5 C 8.371094 5 9 5.625 9 6.398438 L 9 8.601563 C 9 9.375 8.371094 10 7.601563 10 L 7.398438 10 C 6.625 10 6 9.375 6 8.601563 L 6 6.398438 C 6 5.625 6.625 5 7.398438 5 Z "></path>
</g>
</svg>