<svg id="Layer_1" data-name="Layer 1" xmlns="http://www.w3.org/2000/svg" viewBox="0 0 48.8 48.8"><defs><style>.cls-1{fill:rgba(255, 255, 255, 0.1);fill-opacity:0;}.cls-2{fill:none;stroke:rgba(255, 255, 255, 0.8);stroke-miterlimit:10;stroke-width:2px;}</style></defs><title>bell</title><circle class="cls-1" cx="24.39" cy="24.43" r="24.4" transform="translate(-10.07 22.53) rotate(-41.94)"/><path class="cls-2" d="M38,34H10.9c-0.41,0-.52-0.31-0.31-0.72,1-3.21,1.66-6.73.31-9.94h0a13.4,13.4,0,0,1,.52-11.6A15.17,15.17,0,0,1,24.57,3.88h0a14,14,0,0,1,5.9,1.24C37.83,8.33,40.83,17,37.73,24.39v0.1c-1.14,2.8-.1,5.8.72,8.7C38.56,33.71,38.45,34,38,34Z" transform="translate(0.01 -0.03)"/><path class="cls-2" d="M28.8,37.6a4.4,4.4,0,1,1-8.8,0" transform="translate(0.01 -0.03)"/></svg>