<svg id="Layer_1" data-name="Layer 1" xmlns="http://www.w3.org/2000/svg" viewBox="0 0 12.29 13.97"><title>bold</title><path d="M10.31,18H4.39L4.5,17.1,5.28,17c0.56-.11.79-0.22,0.79-0.45V5.37C6.07,5.14,6,5,5.17,4.92H4.5L4.39,4h6.26c4,0,5.58,1.23,5.58,3.13s-1.78,3.12-3.79,3.46v0.11c2.69,0.34,4.25,1.56,4.25,3.57,0,2.35-2,3.69-6.37,3.69h0ZM10,5H9V10.5H10.2A2.61,2.61,0,0,0,13,7.82C13,6.13,12,5,10,5V5h0ZM9.75,11.39H9V17l1.23,0.23h0.22a2.76,2.76,0,0,0,3-2.79c0-2.12-1.57-3-3.69-3h0Z" transform="translate(-4.39 -4.03)"/></svg>