<svg xmlns="http://www.w3.org/2000/svg" xmlns:xlink="http://www.w3.org/1999/xlink" viewBox="0 0 50 50" version="1.1">
<g id="surface1">
<path style=" " d="M 4 4 C 1.800781 4 0 5.800781 0 8 C 0 10.199219 1.800781 12 4 12 C 6.199219 12 8 10.199219 8 8 C 8 5.800781 6.199219 4 4 4 Z M 12 6 L 12 10 L 50 10 L 50 6 Z M 4 21 C 1.800781 21 0 22.800781 0 25 C 0 27.199219 1.800781 29 4 29 C 6.199219 29 8 27.199219 8 25 C 8 22.800781 6.199219 21 4 21 Z M 12 23 L 12 27 L 50 27 L 50 23 Z M 4 38 C 1.800781 38 0 39.800781 0 42 C 0 44.199219 1.800781 46 4 46 C 6.199219 46 8 44.199219 8 42 C 8 39.800781 6.199219 38 4 38 Z M 12 40 L 12 44 L 50 44 L 50 40 Z "></path>
</g>
</svg>