<?xml version="1.0" encoding="utf-8"?>
<!-- Generator: Adobe Illustrator 19.2.0, SVG Export Plug-In . SVG Version: 6.00 Build 0)  -->
<svg version="1.1" id="Layer_1" xmlns="http://www.w3.org/2000/svg" xmlns:xlink="http://www.w3.org/1999/xlink" x="0px" y="0px"
	 viewBox="0 0 29 29" style="enable-background:new 0 0 29 29;" xml:space="preserve">
<style type="text/css">
	.st0{fill:none;}
	.st1{fill:#908E81;}
</style>
<circle class="st0" cx="14.7" cy="14.4" r="14"/>
<path class="st1" d="M7.6,20.5c0,0.3-0.1,0.6-0.2,0.9c-0.3,1-0.8,2-1.5,3c-0.2,0.2-0.2,0.5-0.1,0.8c0.1,0.3,0.4,0.4,0.7,0.4
	c1.7,0,3.4-0.5,4.9-1.5c0.4-0.2,0.7-0.5,1.1-0.8c1.1,0.3,2.3,0.5,3.4,0.5c6.5,0,11.8-4.9,11.8-10.9c0-6-5.3-10.9-11.8-10.9
	S4.4,6.7,4.4,12.7C4.4,15.6,5.4,18.4,7.6,20.5L7.6,20.5z M12.1,22.1c-0.3,0.3-1,0.6-1.4,0.9c-1,0.7-2,1.1-3.1,1.2
	c0.5-0.8,0.8-1.6,1-2.4c0.1-0.4,0.2-0.7,0.2-1.1c0-0.2,0-0.3,0-0.4v-0.4l-0.3-0.2c-2-1.8-2.9-4.3-2.9-6.9c0-5.3,4.5-9.6,10.2-9.6
	c5.8,0,10.5,4.3,10.5,9.6s-4.7,9.6-10.5,9.6c-1.1,0-2.2-0.2-3.3-0.5l-0.5-0.1L12.1,22.1L12.1,22.1z"/>
</svg>
