
<svg xmlns="http://www.w3.org/2000/svg" fill="#39424a" xmlns:xlink="http://www.w3.org/1999/xlink" viewBox="0 0 26 26" version="1.1">
<g id="surface1">
<path style=" " d="M 22.4375 -0.0625 C 22.0625 -0.0625 21.707031 0.105469 21.40625 0.40625 L 20.6875 1.09375 L 24.90625 5.3125 L 25.59375 4.59375 C 26.195313 3.992188 26.195313 3.101563 25.59375 2.5 L 23.5 0.40625 C 23.199219 0.105469 22.8125 -0.0625 22.4375 -0.0625 Z M 20 1.6875 L 18.90625 2.59375 L 23.40625 7.09375 L 24.40625 6.09375 Z M 18.3125 3.3125 L 9.28125 12.25 C 9.234375 12.289063 9.195313 12.328125 9.15625 12.375 L 9.09375 12.40625 C 8.984375 12.53125 8.910156 12.683594 8.875 12.84375 L 7.65625 17.125 C 7.550781 17.46875 7.644531 17.847656 7.898438 18.101563 C 8.152344 18.355469 8.53125 18.449219 8.875 18.34375 L 13.15625 17.125 C 13.445313 17.058594 13.6875 16.859375 13.8125 16.59375 L 22.6875 7.8125 L 21 6 L 21 6.09375 L 19.8125 4.90625 L 19.90625 4.90625 Z M 0.8125 4 C 0.335938 4.089844 -0.0078125 4.511719 0 5 L 0 25 C 0 25.550781 0.449219 26 1 26 L 21 26 C 21.550781 26 22 25.550781 22 25 L 22 14 C 22.003906 13.640625 21.816406 13.304688 21.503906 13.121094 C 21.191406 12.941406 20.808594 12.941406 20.496094 13.121094 C 20.183594 13.304688 19.996094 13.640625 20 14 L 20 24 L 2 24 L 2 6 L 12 6 C 12.359375 6.003906 12.695313 5.816406 12.878906 5.503906 C 13.058594 5.191406 13.058594 4.808594 12.878906 4.496094 C 12.695313 4.183594 12.359375 3.996094 12 4 L 1 4 C 0.96875 4 0.9375 4 0.90625 4 C 0.875 4 0.84375 4 0.8125 4 Z M 10.625 13.8125 L 12 13.90625 L 12.09375 15.40625 L 10.71875 15.8125 L 10.1875 15.28125 Z "></path>
</g>
</svg>