<svg id="Layer_1" data-name="Layer 1" xmlns="http://www.w3.org/2000/svg" viewBox="0 0 16.1 16.1"><defs><style>.cls-1,.cls-2{fill:none;}.cls-1{stroke:#908e81;stroke-miterlimit:10;stroke-width:0.82px;}</style></defs><title>create</title><path class="cls-1" d="M475.42,284l-0.4-4.53a0.46,0.46,0,0,1,.13-0.36l4-4a2.76,2.76,0,0,1,2-.81h0.44a3.83,3.83,0,0,1,3.77,3.16h0a2.76,2.76,0,0,1-.64,2.3l-1,1.16-2.85,3.26a0.46,0.46,0,0,1-.36.16l-4.95-.21" transform="translate(-470.82 -272.69)"/><line class="cls-1" x1="8.05" y1="8.05" x2="12.82" y2="8.21"/><line class="cls-1" x1="2.58" y1="13.37" x2="10.99" y2="5.03"/><circle class="cls-2" cx="8.05" cy="8.05" r="8.05"/></svg>