<?xml version="1.0" encoding="utf-8"?>
<!-- Generator: Adobe Illustrator 19.2.0, SVG Export Plug-In . SVG Version: 6.00 Build 0)  -->
<svg version="1.1" id="Layer_1" xmlns="http://www.w3.org/2000/svg" xmlns:xlink="http://www.w3.org/1999/xlink" x="0px" y="0px"
	 viewBox="0 0 50 50" style="enable-background:new 0 0 50 50;" xml:space="preserve">
<path d="M16.5,13c-2.1,0-3.5,0.9-4.3,1.8S11,16.7,11,16.7c-0.2,0.5,0.1,1.1,0.6,1.3c0.5,0.2,1.1-0.1,1.3-0.6c0,0,0-0.1,0-0.1
	c0,0,0.2-0.5,0.7-1.1c0.5-0.6,1.3-1.2,2.9-1.2s2.3,0.6,2.9,1.2c0.5,0.6,0.7,1.1,0.7,1.1c0.1,0.5,0.7,0.9,1.2,0.7s0.9-0.7,0.7-1.2
	c0,0,0-0.1,0-0.1c0,0-0.3-1-1.1-1.9S18.6,13,16.5,13z M33.5,13c-2.1,0-3.5,0.9-4.3,1.8S28,16.7,28,16.7c-0.2,0.5,0.1,1.1,0.6,1.3
	c0.5,0.2,1.1-0.1,1.3-0.6c0,0,0-0.1,0-0.1c0,0,0.2-0.5,0.7-1.1c0.5-0.6,1.3-1.2,2.9-1.2c1.5,0,2.3,0.6,2.9,1.2
	c0.5,0.6,0.7,1.1,0.7,1.1c0.1,0.5,0.7,0.9,1.2,0.7s0.9-0.7,0.7-1.2c0,0,0-0.1,0-0.1c0,0-0.3-1-1.1-1.9S35.6,13,33.5,13z M14,23
	c-0.6,0-1,0.4-1,0.8c0,3.3,1,6.8,3,9.5c2,2.7,5.1,4.7,9,4.7s7-2,9-4.7c2-2.7,3-6.2,3-9.5c0-0.4-0.4-0.8-1-0.8H14z M15.1,24.6h19.8
	c-0.2,2.8-1,5.7-2.6,7.9c-1.8,2.4-4.2,3.9-7.3,3.9s-5.5-1.5-7.3-3.9C16.1,30.3,15.3,27.4,15.1,24.6z"/>
</svg>
