<svg id="Layer_1" data-name="Layer 1" xmlns="http://www.w3.org/2000/svg" viewBox="0 0 356.16 354.76"><title>edit</title><path d="M409.51,166.71L297.81,55c-12.11-12.11-32.65-11.2-45.89,2L105.42,203.55a36.15,36.15,0,0,0-9.65,17.15L68.36,336.53C65.83,347.21,56.78,366.6,65.75,382l8.18,10.38,10,6.38c9.24,5.84,33.39,0,44.07-2.54L241.3,366.58c6.4-1.52,15.58-4.56,20.35-9.33L407.48,212.6C420.71,199.36,421.62,178.82,409.51,166.71ZM378.16,208.9L245.35,343.38a11.58,11.58,0,0,1-5.14,3l-73.85,20.38a9.94,9.94,0,0,1-9.76-2.4l-25.7-25.7-27.4-27.4a9.94,9.94,0,0,1-2.4-9.76l20.28-73.46a11.58,11.58,0,0,1,2.91-5L259,86.19c4.3-4.37,11.1-4.61,15-.53L378.81,194.23C382.61,198.17,382.33,204.68,378.16,208.9Z" transform="translate(-61.87 -46.49)"/></svg>