<svg id="Layer_1" data-name="Layer 1" xmlns="http://www.w3.org/2000/svg" viewBox="0 0 238.48 238.48"><defs><style>.cls-1{fill:#fff;fill-opacity:0;}.cls-2{fill:none;stroke:#908e81;stroke-miterlimit:10;stroke-width:12px;}</style></defs><title>home</title><circle class="cls-1" cx="119.24" cy="119.24" r="119.24"/><path class="cls-2" d="M197.68,189.45H141.07l-0.46-62.21c-5.36-12.17-35.33-11.89-40.18.45l-0.69,61.76H40.8c-3.35,0-6.06-2.24-6.06-5V106.2A4.51,4.51,0,0,1,36.13,103l78.44-78.17a6.92,6.92,0,0,1,9.18-.14h0l0.15,0.14L202.34,103a4.51,4.51,0,0,1,1.4,3.19v78.22A5.62,5.62,0,0,1,197.68,189.45Z"/></svg>