<svg id="Layer_1" data-name="Layer 1" xmlns="http://www.w3.org/2000/svg" viewBox="0 0 17 13.99"><title>image_up</title><path d="M4,17V8.86A1.84,1.84,0,0,1,6,7H8.43c0.44-.75.81-2,1.17-2h5.8c0.3,0,.76,1.32,1.18,2,0,0.08,2.49,0,2.49,0a1.87,1.87,0,0,1,2,1.85V17a1.94,1.94,0,0,1-2,1.94H6A1.91,1.91,0,0,1,4,17ZM6.22,8A1.2,1.2,0,0,0,5,9.18v7.69A1.18,1.18,0,0,0,6.22,18H18.9A1.16,1.16,0,0,0,20,16.86V9.17A1.18,1.18,0,0,0,18.9,8h-3A11.71,11.71,0,0,0,15,6H10a10.41,10.41,0,0,0-.87,2H6.22Z" transform="translate(-4.04 -5)"/><path d="M12.48,16A3.47,3.47,0,0,1,9,12.52s0,0,0,0A3.47,3.47,0,0,1,12.45,9h0A3.47,3.47,0,0,1,16,12.46s0,0,0,0A3.47,3.47,0,0,1,12.48,16h0Zm0-6.08a2.59,2.59,0,1,0,2.59,2.59A2.62,2.62,0,0,0,12.48,9.9h0Z" transform="translate(-4.04 -5)"/></svg>