<svg xmlns="http://www.w3.org/2000/svg" fill="#39424a" viewBox="0 0 50 50">
    <path style="line-height:normal;text-indent:0;text-align:start;text-decoration-line:none;text-decoration-style:solid;text-decoration-color:#000;text-transform:none;block-progression:tb;isolation:auto;mix-blend-mode:normal" d="M 25 2 C 12.309295 2 2 12.309295 2 25 C 2 37.690705 12.309295 48 25 48 C 37.690705 48 48 37.690705 48 25 C 48 12.309295 37.690705 2 25 2 z M 25 4 C 36.609824 4 46 13.390176 46 25 C 46 36.609824 36.609824 46 25 46 C 13.390176 46 4 36.609824 4 25 C 4 13.390176 13.390176 4 25 4 z M 16.5 13 C 14.422222 13 12.979088 13.915814 12.15625 14.830078 C 11.333412 15.744342 11.042969 16.712891 11.042969 16.712891 A 1.0001 1.0001 0 1 0 12.957031 17.287109 C 12.957031 17.287109 13.115416 16.755658 13.642578 16.169922 C 14.169741 15.584186 14.977778 15 16.5 15 C 18.022222 15 18.830259 15.584186 19.357422 16.169922 C 19.884584 16.755658 20.042969 17.287109 20.042969 17.287109 A 1.0001 1.0001 0 1 0 21.957031 16.712891 C 21.957031 16.712891 21.666588 15.744342 20.84375 14.830078 C 20.020912 13.915814 18.577778 13 16.5 13 z M 33.5 13 C 31.422222 13 29.979088 13.915814 29.15625 14.830078 C 28.333412 15.744342 28.042969 16.712891 28.042969 16.712891 A 1.0001 1.0001 0 1 0 29.957031 17.287109 C 29.957031 17.287109 30.115416 16.755658 30.642578 16.169922 C 31.169741 15.584186 31.977778 15 33.5 15 C 35.022222 15 35.830259 15.584186 36.357422 16.169922 C 36.884584 16.755658 37.042969 17.287109 37.042969 17.287109 A 1.0001 1.0001 0 1 0 38.957031 16.712891 C 38.957031 16.712891 38.666588 15.744342 37.84375 14.830078 C 37.020912 13.915814 35.577778 13 33.5 13 z M 14 23 A 1.0001 1.0001 0 0 0 13 24 C 13 28.166667 14.0231 32.556446 16.009766 36 C 17.996431 39.443554 21.071429 42 25 42 C 28.928571 42 32.003569 39.443554 33.990234 36 C 35.9769 32.556446 37 28.166667 37 24 A 1.0001 1.0001 0 0 0 36 23 L 14 23 z M 15.123047 25 L 34.876953 25 C 34.723976 28.537 33.870841 32.207469 32.259766 35 C 30.496431 38.056446 28.071429 40 25 40 C 21.928571 40 19.503569 38.056446 17.740234 35 C 16.129159 32.207469 15.276024 28.537 15.123047 25 z" font-weight="400" font-family="sans-serif" white-space="normal" overflow="visible"></path>
</svg>