<svg id="Layer_1" data-name="Layer 1" xmlns="http://www.w3.org/2000/svg" viewBox="0 0 19.02 17.45"><title>private</title><path d="M17.66,4.55H7.35A4.36,4.36,0,0,0,3,8.9v5.69a4.35,4.35,0,0,0,3.7,4.28v2.77a0.37,0.37,0,0,0,.59.29l3.9-3h6.48A4.37,4.37,0,0,0,22,14.58V8.9a4.35,4.35,0,0,0-4.34-4.35h0ZM16,14.31a1,1,0,0,1-1,1H10a1,1,0,0,1-1-1v-3a1,1,0,0,1,1-1h0V9.52A2.5,2.5,0,0,1,12.49,7h0A2.51,2.51,0,0,1,15,9.52V10.3a1,1,0,0,1,1,1v3Z" transform="translate(-3 -4.55)"/><path d="M14,9.81a1.66,1.66,0,0,0-1.5-1.68A1.65,1.65,0,0,0,11,9.81V10.3h3V9.81Z" transform="translate(-3 -4.55)"/></svg>