<svg id="Layer_1" data-name="Layer 1" xmlns="http://www.w3.org/2000/svg" viewBox="0 0 16.73 13.58"><title>quote</title><path d="M15.48,18A4.55,4.55,0,0,1,11,13.25c0-3.26,2.5-6.3,6.52-8.8l1.3,1.3c-2.5,1.63-3.91,3-3.91,5.21,0,2.82,3.91,3.58,3.91,3.91A3.2,3.2,0,0,1,15.48,18h0Z" transform="translate(-2.13 -4.44)"/><path d="M6.58,18a4.55,4.55,0,0,1-4.45-4.78c0-3.26,2.5-6.3,6.51-8.8l1.3,1.3C7.34,7.38,6,8.79,6,10.85c0,2.82,3.91,3.58,3.91,3.91A3.36,3.36,0,0,1,6.58,18h0Z" transform="translate(-2.13 -4.44)"/></svg>