<svg id="Capa_1" data-name="Capa 1" xmlns="http://www.w3.org/2000/svg" viewBox="0 0 410 410"><defs><style>.cls-1{fill:none;}.cls-2{fill:#908e81;}</style></defs><title>search</title><circle class="cls-1" cx="205" cy="205" r="205"/><path class="cls-2" d="M356.73,349.9l-76.1-76.1a133,133,0,0,0,32.77-87.56c0-73.67-59.92-133.53-133.53-133.53S46.35,112.63,46.35,186.24s59.92,133.53,133.53,133.53A133,133,0,0,0,267.43,287l76.1,76.1a9.43,9.43,0,0,0,6.6,2.78,9.15,9.15,0,0,0,6.6-2.78A9.39,9.39,0,0,0,356.73,349.9ZM65,186.24a114.78,114.78,0,1,1,229.56,0c0,63.26-51.45,114.85-114.78,114.85S65,249.56,65,186.24Z" transform="translate(-13 -20.5)"/></svg>